<?xml version="1.0" standalone="no"?>
<!DOCTYPE svg PUBLIC "-//W3C//DTD SVG 20010904//EN"
 "http://www.w3.org/TR/2001/REC-SVG-20010904/DTD/svg10.dtd">
<svg version="1.0" xmlns="http://www.w3.org/2000/svg"
 width="1000.000000pt" height="1000.000000pt" viewBox="0 0 1000.000000 1000.000000"
 preserveAspectRatio="xMidYMid meet">
<metadata>
Created by potrace 1.16, written by Peter Selinger 2001-2019
</metadata>
<g transform="translate(0.000000,1000.000000) scale(0.100000,-0.100000)"
fill="#000000" stroke="none">
<path d="M6760 8176 c-191 -46 -411 -143 -615 -272 -105 -67 -142 -84 -192
-93 -101 -19 -150 -37 -195 -72 -24 -19 -44 -37 -46 -41 -2 -4 -14 -23 -28
-43 -13 -20 -27 -54 -30 -76 -4 -22 -14 -44 -23 -49 -14 -7 -31 15 -96 123
l-80 132 -230 102 c-126 56 -263 115 -302 130 -59 22 -79 36 -105 70 -45 60
-76 59 -138 -5 -38 -39 -67 -57 -151 -91 -57 -23 -192 -81 -299 -129 l-195
-87 -80 -132 c-65 -108 -82 -130 -96 -123 -9 5 -19 27 -23 49 -3 22 -17 56
-30 76 -14 20 -26 39 -28 43 -2 4 -22 22 -46 41 -45 35 -94 53 -195 72 -50 9
-87 26 -192 93 -280 177 -599 295 -795 296 -110 0 -257 -40 -341 -93 -80 -50
-150 -132 -173 -202 -40 -125 -5 -369 99 -674 19 -58 35 -106 35 -107 0 -1
-27 7 -61 17 -75 23 -89 24 -88 2 0 -10 31 -101 68 -203 l68 -185 45 -25 46
-25 -27 -53 c-24 -48 -45 -66 -236 -205 -177 -130 -246 -172 -442 -276 -134
-71 -233 -129 -233 -137 0 -20 9 -19 196 26 92 22 171 39 176 38 5 -2 -30 -38
-76 -81 -126 -115 -196 -218 -257 -379 -57 -150 -129 -454 -129 -546 0 -104
12 -192 26 -192 7 0 61 92 121 204 59 113 109 203 111 202 1 -2 -18 -61 -44
-132 -95 -267 -104 -355 -49 -464 20 -39 109 -271 199 -516 90 -244 166 -448
170 -451 3 -4 11 -2 16 3 5 5 12 366 16 899 l7 889 153 254 c157 262 198 317
445 592 124 138 129 153 122 332 l-6 143 193 105 c205 111 234 136 296 241 18
30 35 66 38 81 6 26 2 30 -56 60 l-63 33 -151 -2 -151 -1 -84 -52 c-46 -29
-96 -64 -111 -78 -32 -29 -33 -25 -15 60 12 56 14 58 134 163 68 59 123 112
123 119 0 6 -65 38 -145 70 -80 32 -145 61 -145 65 0 4 100 18 222 31 l221 24
166 -28 c91 -16 171 -30 176 -33 6 -2 44 -67 87 -145 l76 -142 -24 -65 c-16
-43 -40 -81 -67 -109 -41 -42 -42 -45 -42 -110 0 -49 5 -76 18 -96 10 -15 17
-30 14 -32 -3 -3 -92 -43 -198 -89 -114 -49 -215 -100 -244 -123 l-51 -39
-113 -345 -114 -345 -130 -147 -129 -147 35 -78 c59 -128 87 -259 87 -403 0
-130 -33 -403 -70 -586 -12 -57 -20 -105 -18 -106 1 -2 89 -62 193 -134 133
-91 211 -152 259 -204 190 -200 280 -288 288 -280 6 6 1 58 -12 126 l-21 117
23 19 c13 11 30 17 38 14 8 -3 51 -19 95 -35 71 -26 102 -46 240 -159 87 -71
162 -127 167 -124 14 9 9 27 -52 195 -46 125 -75 185 -121 256 l-61 92 -171
101 c-111 65 -186 117 -212 145 -22 24 -75 82 -118 128 l-78 85 -19 213 c-11
118 -22 237 -25 264 -5 46 2 35 97 -150 57 -110 127 -237 155 -281 29 -44 78
-133 108 -197 51 -109 66 -130 79 -109 3 5 13 54 23 110 l17 101 84 -45 c55
-29 97 -44 121 -44 35 0 38 -3 82 -77 26 -43 56 -108 68 -145 37 -110 55 -99
65 39 7 90 6 95 -30 195 -34 94 -45 111 -113 185 -50 54 -113 108 -183 155
l-107 73 -1 111 c0 73 -5 126 -15 154 -8 24 -13 45 -11 47 2 2 45 -50 95 -116
l91 -119 62 -6 c35 -3 76 -7 92 -8 25 -3 30 -9 45 -58 21 -66 44 -112 66 -130
13 -11 16 -32 15 -114 -2 -129 -2 -126 10 -126 6 0 27 11 48 24 32 20 41 35
66 109 l30 86 43 -31 c24 -17 43 -36 43 -41 0 -5 -22 -35 -48 -66 -27 -31 -77
-110 -113 -176 l-64 -120 -16 -145 -16 -145 35 -109 34 -109 -16 -163 c-9 -90
-16 -193 -16 -229 0 -72 -8 -56 128 -263 l15 -24 -39 7 c-93 15 -92 15 -128
73 l-34 57 9 80 c5 44 5 83 1 86 -4 4 -59 19 -122 34 -63 15 -123 29 -132 31
-28 8 -22 -30 26 -146 40 -100 45 -107 99 -145 33 -23 75 -66 101 -103 25 -35
47 -66 49 -68 3 -3 38 -14 78 -25 41 -11 79 -22 86 -24 7 -2 -2 -43 -28 -126
-21 -67 -35 -127 -32 -133 37 -63 167 -223 253 -311 82 -83 127 -140 186 -235
l77 -125 -12 -160 c-6 -88 -15 -195 -18 -239 -5 -67 -4 -78 9 -75 9 2 87 81
173 174 149 160 182 192 190 183 17 -18 185 -295 185 -305 0 -7 6 -13 13 -13
21 0 46 33 54 70 5 26 123 231 148 258 8 9 41 -23 190 -183 86 -93 164 -172
173 -174 13 -3 14 8 9 75 -3 44 -12 151 -18 239 l-12 160 77 125 c59 95 104
152 186 235 86 88 216 248 253 311 3 6 -11 66 -32 133 -26 83 -35 124 -28 126
7 2 45 13 86 24 40 11 75 22 78 25 2 2 24 33 49 68 26 37 68 80 101 103 54 38
59 45 99 145 48 116 54 154 27 146 -10 -2 -70 -16 -133 -31 -63 -15 -118 -30
-122 -34 -4 -3 -4 -42 1 -86 l9 -80 -34 -57 c-30 -49 -40 -58 -72 -63 -20 -4
-50 -9 -66 -12 -30 -5 -30 -5 -14 19 136 207 128 191 128 263 0 36 -7 139 -16
229 l-16 163 34 109 35 109 -16 145 -16 145 -64 120 c-36 66 -86 145 -113 176
-26 31 -48 61 -48 66 0 5 19 24 43 41 l43 31 30 -86 c25 -74 34 -89 66 -109
21 -13 42 -24 48 -24 12 0 12 -3 10 126 -1 82 2 103 15 114 22 18 45 64 66
130 15 49 20 55 45 58 16 1 57 5 92 8 l62 6 91 119 c50 66 93 118 95 116 2 -2
-3 -23 -11 -47 -10 -28 -15 -81 -15 -154 l-1 -111 -107 -73 c-70 -47 -133
-101 -183 -155 -68 -74 -79 -91 -113 -185 -36 -100 -37 -105 -30 -195 10 -138
28 -149 65 -39 12 37 42 102 68 145 44 74 47 77 82 77 24 0 66 15 121 44 l84
45 17 -101 c10 -56 20 -105 23 -110 13 -21 28 0 79 109 30 64 79 153 108 197
28 44 98 171 155 281 95 185 102 196 97 150 -3 -27 -14 -146 -25 -264 l-19
-213 -78 -85 c-43 -46 -96 -104 -118 -128 -26 -28 -101 -80 -212 -145 l-171
-101 -61 -93 c-45 -68 -75 -130 -112 -232 -28 -76 -58 -154 -66 -172 -14 -28
-14 -35 -3 -42 17 -11 -3 -25 179 124 135 109 166 129 235 155 45 16 88 32 96
35 8 3 25 -3 38 -14 l23 -19 -21 -117 c-13 -68 -18 -120 -12 -126 8 -8 98 80
288 280 48 52 126 113 259 204 105 72 192 132 193 134 2 1 -6 49 -18 106 -37
183 -70 456 -70 586 0 144 28 275 87 403 l35 78 -129 147 -130 147 -114 345
-113 345 -51 39 c-29 23 -130 74 -244 123 -106 46 -195 86 -198 89 -3 2 4 17
14 32 13 20 18 47 18 96 0 65 -1 68 -42 110 -27 28 -51 66 -67 109 l-24 65 76
142 c43 78 82 143 87 145 6 3 85 17 176 33 l166 28 221 -24 c122 -13 222 -27
222 -31 0 -4 -65 -33 -145 -65 -80 -32 -145 -64 -145 -70 0 -7 55 -60 123
-119 120 -105 122 -107 134 -163 18 -85 17 -89 -14 -60 -16 14 -66 49 -112 78
l-84 52 -151 1 -151 2 -63 -33 c-58 -30 -62 -34 -56 -60 3 -15 20 -51 38 -81
62 -105 91 -130 296 -241 l193 -105 -6 -143 c-7 -179 -2 -194 122 -332 247
-275 288 -330 445 -592 l153 -254 7 -889 c4 -533 11 -894 16 -899 5 -5 13 -7
16 -3 4 3 80 207 170 451 90 245 179 477 199 516 55 109 46 197 -49 464 -26
71 -45 130 -44 132 2 1 52 -89 111 -202 60 -112 114 -204 121 -204 14 0 26 88
26 192 0 92 -72 396 -129 546 -61 161 -131 264 -257 379 -46 43 -81 79 -76 81
5 1 84 -16 176 -38 187 -45 196 -46 196 -26 0 8 -99 66 -232 137 -197 104
-266 146 -443 276 -191 139 -212 157 -236 205 l-27 53 46 25 45 25 68 185 c37
102 68 193 68 203 1 22 -13 21 -88 -2 -34 -10 -61 -18 -61 -17 0 1 16 49 35
107 104 305 139 549 99 674 -40 123 -171 226 -340 269 -125 32 -224 33 -354 2z
m-1713 -498 c4 -7 37 -76 74 -154 46 -99 89 -172 144 -245 43 -57 79 -105 79
-106 1 -1 118 -33 261 -73 l260 -71 100 -69 c55 -38 209 -137 342 -220 259
-162 243 -147 258 -246 5 -32 -1 -57 -24 -118 -26 -64 -32 -97 -38 -191 -5
-102 -4 -115 11 -121 12 -4 22 1 33 15 8 12 25 34 37 48 l22 25 82 -61 c50
-37 83 -69 86 -83 18 -86 46 -337 45 -403 l-1 -80 -13 75 c-7 41 -27 120 -44
175 -17 55 -31 119 -31 141 0 41 -41 147 -62 160 -15 9 -63 -51 -83 -104 l-17
-42 -27 19 c-28 20 -154 218 -211 331 -32 64 -44 77 -87 101 -19 10 -48 0
-225 -77 -122 -53 -234 -110 -280 -141 -104 -71 -170 -72 -193 -2 -11 31 -8
41 38 138 47 98 49 106 36 130 -14 24 -20 26 -84 27 -79 1 -414 77 -427 97 -5
6 -49 89 -98 184 -79 150 -97 177 -141 212 -60 48 -45 54 42 19 78 -31 90 -46
115 -145 l21 -88 79 -49 c44 -27 141 -82 217 -123 118 -63 145 -73 188 -73 47
0 57 5 145 70 53 39 94 76 91 83 -2 6 -73 30 -158 52 -115 30 -164 48 -193 70
l-39 29 7 74 c3 43 1 92 -5 118 -10 38 -21 51 -80 94 -80 58 -173 187 -205
284 -16 47 -27 63 -55 79 -33 19 -36 19 -61 3 -22 -14 -26 -26 -32 -85 -6 -60
-4 -77 24 -151 16 -46 30 -87 30 -92 0 -7 -151 100 -177 125 -9 9 -7 32 8 97
10 49 19 124 19 177 l0 93 78 39 c82 43 106 48 119 29z m-487 -38 l80 -40 0
-93 c0 -53 9 -128 19 -177 15 -65 17 -88 8 -97 -26 -25 -177 -132 -177 -125 0
5 14 46 30 92 28 74 30 91 24 151 -6 59 -10 71 -32 85 -25 16 -28 16 -61 -3
-28 -16 -39 -32 -55 -79 -32 -97 -125 -226 -205 -284 -59 -43 -70 -56 -80 -94
-6 -26 -8 -75 -5 -118 l7 -74 -39 -29 c-29 -22 -78 -40 -193 -70 -85 -22 -156
-46 -158 -52 -3 -7 38 -44 91 -83 88 -65 98 -70 145 -70 43 0 70 10 188 73 76
41 173 96 217 123 l79 49 21 88 c25 99 37 114 115 145 87 35 102 29 42 -19
-44 -35 -62 -62 -141 -212 -49 -95 -93 -178 -98 -184 -13 -20 -348 -96 -427
-97 -64 -1 -70 -3 -84 -27 -13 -24 -11 -32 36 -130 46 -97 49 -107 38 -138
-23 -70 -89 -69 -193 2 -46 31 -158 88 -280 141 -177 77 -206 87 -225 77 -43
-24 -55 -37 -87 -101 -57 -113 -183 -311 -211 -331 l-27 -19 -17 42 c-20 53
-68 113 -83 104 -21 -13 -62 -119 -62 -160 0 -22 -14 -86 -31 -141 -17 -55
-37 -134 -44 -175 l-13 -75 -1 80 c-1 66 27 317 45 403 3 14 36 46 86 83 l82
61 22 -25 c12 -14 29 -36 37 -48 11 -14 21 -19 33 -15 15 6 16 19 11 121 -6
94 -12 127 -38 191 -23 61 -29 86 -24 118 15 99 -1 84 258 246 133 83 287 182
342 220 l100 69 260 71 c143 40 260 72 261 73 0 1 36 49 79 106 55 73 98 146
144 245 79 167 78 166 97 166 8 0 50 -18 94 -40z m295 -1190 c3 -5 79 -33 168
-61 89 -28 166 -54 171 -57 5 -3 -69 -24 -164 -46 l-174 -41 -42 -140 -43
-140 -2 105 c-1 87 -3 97 -10 60 -4 -25 -8 -84 -8 -132 -1 -71 -4 -88 -16 -88
-9 0 -15 9 -16 23 0 12 -19 85 -43 162 l-42 140 -174 41 c-95 22 -169 43 -164
46 5 3 82 29 171 57 89 28 165 56 168 61 3 5 26 74 50 152 24 79 44 131 44
117 1 -15 8 -29 16 -33 12 -4 15 3 16 32 0 28 11 1 44 -106 24 -78 47 -147 50
-152z m1165 -485 c28 -14 50 -28 50 -30 0 -3 -24 -44 -54 -91 l-54 -87 -122
-53 c-68 -30 -128 -54 -134 -54 -9 0 -140 64 -155 76 -1 1 0 8 4 14 4 7 11 8
18 2 7 -5 47 -15 89 -21 72 -11 83 -11 147 10 l69 22 36 77 c24 49 36 91 36
118 0 23 5 42 10 42 6 0 33 -11 60 -25z m-2480 -27 c0 -27 12 -69 36 -118 l36
-77 69 -22 c64 -21 75 -21 147 -10 42 6 82 16 89 21 7 6 14 5 18 -2 4 -6 5
-13 4 -14 -15 -12 -146 -76 -155 -76 -6 0 -66 24 -134 54 l-122 53 -54 87
c-30 47 -54 88 -54 91 0 7 93 54 108 55 8 0 12 -15 12 -42z m2539 -350 c-28
-79 -53 -151 -56 -161 -3 -9 -15 -19 -27 -22 -11 -3 -70 -16 -129 -30 -60 -14
-115 -25 -124 -25 -8 0 -62 37 -120 83 l-106 82 199 6 c109 4 209 7 221 8 14
1 49 34 104 101 46 55 84 100 86 100 1 0 -20 -64 -48 -142z m-2619 20 c46 -57
80 -88 94 -89 11 -1 111 -4 220 -8 l199 -6 -106 -82 c-58 -46 -112 -83 -120
-83 -9 0 -64 11 -124 25 -59 14 -118 27 -129 30 -12 3 -24 13 -27 22 -3 10
-28 83 -56 163 -29 80 -46 138 -38 130 8 -8 47 -54 87 -102z m1284 -310 c6 -4
16 -1 22 7 9 12 21 -7 61 -93 l49 -107 -51 -110 c-29 -62 -54 -103 -57 -95 -4
13 -7 12 -21 -2 -9 -9 -17 -23 -17 -30 0 -7 -27 41 -58 107 l-58 120 55 118
c31 65 58 112 60 105 2 -7 9 -16 15 -20z m665 -83 c7 -28 4 -52 -20 -130 l-28
-97 21 -28 c12 -16 49 -41 87 -58 57 -26 75 -41 119 -97 29 -37 52 -75 52 -84
0 -9 3 -27 6 -41 l6 -25 -19 22 c-49 59 -190 144 -331 199 l-143 56 52 39 c58
43 150 172 170 237 7 23 13 42 15 42 2 0 7 -16 13 -35z m-1234 -138 c32 -47
73 -93 104 -116 l52 -39 -143 -56 c-141 -55 -282 -140 -331 -199 l-19 -22 6
25 c3 14 6 32 6 41 0 9 23 47 52 84 44 56 62 71 119 97 38 17 75 42 87 58 l21
28 -28 97 c-25 81 -28 101 -19 133 l11 37 15 -45 c8 -25 39 -80 67 -123z
m1218 -873 c3 -6 34 -19 67 -29 59 -18 64 -18 108 -1 l47 17 -50 -51 c-32 -32
-58 -50 -73 -50 -43 0 -392 -120 -392 -135 0 -16 6 -18 120 -43 84 -18 86 -18
140 0 59 21 270 71 276 66 1 -2 -12 -20 -29 -40 l-32 -37 -270 -32 c-148 -17
-272 -33 -274 -35 -13 -11 21 -39 129 -103 l122 -73 131 25 c73 14 133 24 134
23 1 -1 -20 -19 -48 -40 l-51 -38 -112 11 c-149 15 -176 14 -176 -3 0 -18 160
-132 202 -145 27 -8 17 -9 -57 -10 l-90 -1 -139 89 -138 88 -48 86 -48 85 87
130 86 130 143 63 c79 35 146 68 151 73 4 6 16 58 26 116 10 58 20 112 24 120
3 8 11 -44 16 -115 6 -72 14 -135 18 -141z m-1238 126 c10 -58 22 -110 26
-116 5 -5 72 -38 151 -73 l143 -63 86 -130 87 -130 -48 -85 -48 -86 -138 -88
-139 -89 -90 1 c-75 1 -84 2 -57 10 42 12 202 128 202 146 0 16 -29 16 -176 2
l-112 -11 -51 38 c-28 21 -49 39 -48 40 1 1 61 -9 134 -23 l131 -25 122 73
c108 64 142 92 129 103 -2 2 -125 18 -274 35 l-270 32 -32 37 c-17 20 -30 38
-29 40 6 5 217 -45 276 -66 54 -18 56 -18 140 0 114 25 120 27 120 43 0 15
-349 135 -392 135 -15 0 -41 18 -73 50 l-50 51 47 -17 c44 -17 49 -17 108 1
43 13 64 25 70 40 4 11 11 74 15 139 4 65 11 113 15 105 4 -8 16 -61 25 -119z
m948 28 c-7 -85 -11 -95 -57 -133 -39 -31 -47 -35 -64 -24 -16 10 -18 17 -11
36 18 48 13 53 -55 53 -63 0 -65 -1 -95 -39 -17 -21 -31 -43 -31 -48 0 -6 22
-25 50 -44 47 -32 48 -34 32 -52 -25 -28 -85 -56 -123 -58 -45 -3 -101 16
-127 44 l-21 22 49 34 c28 19 50 38 50 44 0 5 -14 27 -31 48 -30 38 -32 39
-95 39 -68 0 -73 -5 -55 -53 7 -19 5 -26 -11 -36 -17 -11 -25 -7 -64 24 -46
38 -50 48 -57 133 -4 48 -2 52 18 52 12 0 43 -18 68 -40 50 -45 62 -47 110
-24 32 15 36 15 78 -6 53 -28 110 -85 103 -105 -3 -7 -1 -22 5 -32 8 -14 10
-2 11 53 l0 71 49 22 c45 22 50 22 79 7 45 -23 59 -20 109 24 25 22 56 40 68
40 20 0 22 -4 18 -52z m-38 -1075 l103 -37 41 -83 41 -83 42 0 c24 0 49 -4 55
-8 10 -6 -2 -52 -47 -188 -33 -98 -62 -186 -65 -193 -4 -10 -26 17 -61 72 -31
48 -60 87 -66 87 -5 0 -78 -63 -161 -140 -140 -128 -152 -138 -155 -114 -5 38
-27 23 -30 -22 -2 -21 -7 -43 -12 -48 -5 -5 -82 58 -183 153 -96 88 -180 161
-185 161 -6 0 -35 -39 -66 -87 -35 -55 -57 -82 -61 -72 -3 7 -32 95 -65 193
-45 136 -57 182 -47 188 6 4 31 8 55 8 l42 0 41 83 41 83 103 37 c56 20 105
37 108 37 3 0 47 -48 98 -107 51 -60 98 -108 104 -108 7 0 19 -6 27 -13 13
-10 17 -10 22 4 3 8 6 22 6 31 0 14 155 203 167 203 3 0 52 -17 108 -37z"/>
<path d="M7281 5738 c-7 -18 -32 -1190 -31 -1470 0 -51 -4 -61 -37 -100 -21
-24 -47 -62 -57 -86 -10 -23 -26 -44 -35 -46 -156 -44 -154 -44 -196 -101 -22
-30 -44 -54 -50 -54 -5 0 -98 15 -205 34 -107 18 -199 30 -203 25 -10 -9 -4
-21 139 -277 l114 -201 0 -336 c0 -268 3 -336 13 -336 7 0 147 185 311 410
l297 410 67 34 c97 50 102 55 132 139 l27 77 -29 124 -30 125 36 418 c26 311
42 449 62 538 l27 120 -160 284 c-87 157 -164 286 -171 289 -6 2 -16 -7 -21
-20z"/>
<path d="M2162 5718 c-11 -18 -84 -148 -162 -288 l-143 -255 27 -120 c20 -89
36 -227 62 -538 l36 -418 -30 -125 -29 -124 27 -77 c30 -84 35 -89 132 -139
l67 -34 297 -410 c164 -225 304 -410 311 -410 10 0 13 68 13 336 l0 336 114
201 c143 256 149 268 139 277 -4 5 -96 -7 -203 -25 -107 -19 -199 -34 -205
-34 -5 0 -28 24 -50 54 -42 57 -40 57 -196 101 -9 2 -25 23 -35 46 -10 24 -36
62 -56 86 -34 39 -38 49 -38 100 1 273 -24 1452 -31 1470 -12 30 -24 28 -47
-10z"/>
<path d="M6440 3594 c-22 -47 -40 -90 -40 -95 0 -5 -4 -9 -8 -9 -10 0 -62 105
-62 126 0 23 -34 13 -38 -11 -2 -11 -35 -130 -74 -265 l-71 -245 -81 -126 -81
-125 -135 -91 c-74 -50 -170 -110 -214 -134 -70 -39 -82 -51 -116 -109 -31
-53 -39 -78 -44 -139 -6 -66 -13 -86 -76 -203 -39 -71 -70 -140 -70 -153 0
-30 10 -55 22 -55 17 0 487 411 562 492 l74 79 298 123 c260 107 301 126 313
151 28 57 25 95 -19 235 -40 131 -42 142 -56 375 -8 132 -17 246 -19 253 -10
28 -28 7 -65 -74z"/>
<path d="M2986 3658 c-3 -7 -12 -121 -20 -253 -14 -233 -16 -244 -56 -375 -44
-140 -47 -178 -19 -235 12 -25 53 -44 313 -151 l298 -123 74 -79 c75 -81 545
-492 562 -492 12 0 22 25 22 55 0 13 -31 82 -70 153 -63 117 -70 137 -76 203
-5 61 -13 86 -44 139 -34 58 -46 70 -116 109 -44 24 -140 84 -214 134 l-135
91 -81 125 -81 126 -71 245 c-39 135 -72 254 -74 265 -4 24 -38 34 -38 11 0
-18 -51 -126 -60 -126 -3 0 -23 42 -45 92 -39 88 -60 115 -69 86z"/>
</g>
</svg>
